<svg xmlns="http://www.w3.org/2000/svg" width="162" height="36" fill="none" viewBox="0 0 216 48"><g clip-path="url(#a)"><g fill-rule="evenodd" clip-path="url(#b)" clip-rule="evenodd"><path fill="#69D370" d="M32.577 8.677a4.282 4.282 0 0 1-5.246 3.024c-4.278-1.15-9.017-.042-12.36 3.302-4.988 4.987-4.988 13.073 0 18.06 4.987 4.988 13.073 4.988 18.06 0 3.344-3.343 4.451-8.082 3.302-12.36a4.282 4.282 0 1 1 8.27-2.223c1.911 7.114.08 15.043-5.517 20.639-8.331 8.331-21.84 8.331-30.17 0-8.333-8.332-8.333-21.84 0-30.172C14.51 3.351 22.44 1.52 29.552 3.431a4.282 4.282 0 0 1 3.024 5.246Z"/><path fill="#000" d="M34.213 12.23c1.616-1.617 2.39-3.714 2.28-5.662l.011-.01a5.1 5.1 0 1 1 5.057 4.968c-1.998-.141-4.163.639-5.817 2.292-2.231 2.232-2.857 5.379-1.767 7.786.792 3.33-.11 6.982-2.71 9.58-3.982 3.983-10.44 3.983-14.422 0-3.982-3.982-3.982-10.439 0-14.422a10.192 10.192 0 0 1 9.612-2.702c2.418 1.03 5.544.382 7.756-1.83Zm-5.775 17.113c.638-.82.846-1.779.784-2.802l-.004-.167c-.002-.125-.004-.25-.017-.374-.077-.712-.48-1.127-1.167-1.18a5.735 5.735 0 0 0-1.2.04c-.467.064-.9-.001-1.265-.329a75.167 75.167 0 0 1-2.203-2.062 1.374 1.374 0 0 1-.427-1.21c.04-.313.053-.63.036-.947-.042-.82-.417-1.238-1.226-1.364-1.048-.164-2.011.096-2.892.646-.88.55-1.514 1.297-1.809 2.303-.414 1.424-.217 2.808.343 4.148.5 1.197 1.289 2.19 2.269 3.035.692.596 1.44 1.11 2.291 1.448 1.174.466 2.38.734 3.648.51 1.156-.205 2.117-.766 2.84-1.695Z"/></g></g><path fill="#191C1B" fill-rule="evenodd" d="M60.373 19.441v8.5c0 .365.006.704.025 1.044.035.425.107.847.215 1.261.121.485.292.956.51 1.407.246.48.552.928.91 1.334.404.457.877.85 1.403 1.164a7.4 7.4 0 0 0 2.042.776c.911.208 1.845.308 2.78.297a10.58 10.58 0 0 0 3.358-.479 6.744 6.744 0 0 0 2.263-1.164 5.723 5.723 0 0 0 1.335-1.625c.306-.53.533-1.1.677-1.692.132-.538.206-1.09.22-1.643a.828.828 0 0 0-.159-.51.809.809 0 0 0-.535-.297l-3.549-.745a.996.996 0 0 0-.8.145c-.216.18-.356.433-.393.71a2.906 2.906 0 0 1-.658 1.63 2.329 2.329 0 0 1-1.728.522 3.253 3.253 0 0 1-1.163-.176 1.602 1.602 0 0 1-.74-.464 1.581 1.581 0 0 1-.38-.779 5.504 5.504 0 0 1-.171-1c-.031-.315-.031-.746-.031-1.285v-4.305c0-.305.01-.573.018-.806.007-.18.013-.34.013-.48.027-.338.085-.673.172-1 .069-.291.203-.563.393-.795.205-.2.453-.352.726-.442a3.24 3.24 0 0 1 1.163-.182 2.484 2.484 0 0 1 1.759.521c.392.436.624.99.658 1.57.048.294.203.559.436.746a.965.965 0 0 0 .818.182l3.488-.745c.205-.046.392-.151.535-.304a.829.829 0 0 0 .16-.509 6.86 6.86 0 0 0-.13-1.134 9.616 9.616 0 0 0-.313-1.212 5.352 5.352 0 0 0-.578-1.256 5.949 5.949 0 0 0-.978-1.133 6.219 6.219 0 0 0-1.458-.97 8.19 8.19 0 0 0-1.931-.655 11.684 11.684 0 0 0-2.528-.255c-.936-.012-1.87.094-2.78.315a7.803 7.803 0 0 0-2.042.776 5.447 5.447 0 0 0-1.402 1.152c-.36.403-.666.849-.91 1.328a7.327 7.327 0 0 0-.505 1.407 7.4 7.4 0 0 0-.215 1.255Zm17.744 1.54v12.672c-.017.272.074.539.252.746a.9.9 0 0 0 .695.273h3.518a.83.83 0 0 0 .698-.217.807.807 0 0 0 .243-.68v-2.601a.796.796 0 0 1 .243-.681.82.82 0 0 1 .698-.217h2.706a.828.828 0 0 1 .698.217.807.807 0 0 1 .243.68v2.602a.796.796 0 0 0 .243.68.82.82 0 0 0 .698.217h3.518c.628 0 .941-.34.941-1.019V20.981c0-.619-.012-1.164-.043-1.631a9.944 9.944 0 0 0-.24-1.552 6.058 6.058 0 0 0-.498-1.468 5.421 5.421 0 0 0-.916-1.212 4.85 4.85 0 0 0-1.378-1.019 8.211 8.211 0 0 0-1.968-.606 15.01 15.01 0 0 0-5.308 0 8.24 8.24 0 0 0-1.962.606c-.514.255-.977.6-1.365 1.019a5.99 5.99 0 0 0-.91 1.212c-.24.464-.416.958-.523 1.468-.116.51-.194 1.03-.234 1.552-.05.467-.05 1.025-.05 1.63Zm5.463 3.612a.88.88 0 0 1-.057-.356l.006-3.232a5.455 5.455 0 0 1 .062-.946 1.47 1.47 0 0 1 .301-.642c.184-.213.432-.364.707-.43a4.473 4.473 0 0 1 1.23-.134c.935 0 1.563.157 1.846.479.332.484.487 1.066.436 1.649v3.226a.825.825 0 0 1-.243.688.851.851 0 0 1-.698.24h-2.706a.968.968 0 0 1-.689-.237.89.89 0 0 1-.195-.305Zm12.915-9.918v19.1a.856.856 0 0 0 .252.673.957.957 0 0 0 .695.242h3.518a.829.829 0 0 0 .699-.216.797.797 0 0 0 .242-.68v-4.785a.797.797 0 0 1 .243-.68.826.826 0 0 1 .698-.217h1.507c2.772.008 4.773-.564 6.003-1.716 1.23-1.152 1.845-2.971 1.845-5.457.004-2.482-.611-4.301-1.845-5.457-1.234-1.156-3.235-1.734-6.003-1.734h-6.907a.859.859 0 0 0-.702.236.835.835 0 0 0-.245.691Zm5.446 7.748a.797.797 0 0 1-.04-.369V19.8a.797.797 0 0 1 .243-.681.826.826 0 0 1 .698-.217h1.698c.341-.007.683.013 1.021.061.24.037.47.122.676.248.216.143.372.359.437.607.096.362.14.735.129 1.11.011.372-.032.743-.129 1.103a1.01 1.01 0 0 1-.437.606 1.728 1.728 0 0 1-.676.255c-.338.048-.68.068-1.021.06h-1.698a.83.83 0 0 1-.698-.216.808.808 0 0 1-.203-.312Zm11.24 6.15v.09c.037.535.125 1.065.264 1.583a6.69 6.69 0 0 0 .763 1.643 5.86 5.86 0 0 0 1.433 1.6 7.364 7.364 0 0 0 2.337 1.134c1.09.326 2.225.483 3.364.467.94.006 1.877-.095 2.792-.303a8.529 8.529 0 0 0 2.141-.758 7.473 7.473 0 0 0 1.519-1.091 6.154 6.154 0 0 0 1.052-1.213 7.16 7.16 0 0 0 .615-1.213c.135-.317.24-.646.313-.982.047-.199.073-.402.08-.606a5.64 5.64 0 0 0-.442-2.256 5.412 5.412 0 0 0-1.132-1.734 9.253 9.253 0 0 0-1.599-1.297c-.582-.387-1.2-.717-1.845-.989l-1.845-.764-1.667-.655a5.084 5.084 0 0 1-1.23-.66 1.45 1.45 0 0 1-.615-.789v-.151a.966.966 0 0 1 .442-.807c.406-.302.908-.45 1.415-.418a2.988 2.988 0 0 1 1.845.54 2.207 2.207 0 0 1 .898 1.46c.086.522.345.777.787.777a.93.93 0 0 0 .253-.03l3.604-.722a.896.896 0 0 0 .589-.288.87.87 0 0 0 .229-.61v-.09a6.59 6.59 0 0 0-.302-1.45 6.872 6.872 0 0 0-.818-1.624 5.9 5.9 0 0 0-1.427-1.54 7.355 7.355 0 0 0-2.324-1.092 11.403 11.403 0 0 0-3.297-.449c-.889-.01-1.775.09-2.639.298a7.285 7.285 0 0 0-1.968.764 6.27 6.27 0 0 0-1.347 1.09c-.35.362-.646.77-.879 1.214a6.703 6.703 0 0 0-.474 1.212c-.098.322-.172.65-.221.982a5.842 5.842 0 0 0 .473 3.117 5.1 5.1 0 0 0 1.366 1.82c.571.465 1.189.871 1.845 1.212.673.356 1.372.662 2.091.915a94.99 94.99 0 0 1 1.944.698 7.75 7.75 0 0 1 1.494.794c.361.204.629.536.751.928v.176a1.178 1.178 0 0 1-.616.957 3.1 3.1 0 0 1-1.845.54 2.955 2.955 0 0 1-1.9-.606 2.27 2.27 0 0 1-.867-1.661c-.062-.54-.314-.807-.751-.807a1.672 1.672 0 0 0-.283 0l-3.555.746a.889.889 0 0 0-.587.289.866.866 0 0 0-.224.608Zm37.229-13.928v19.13a.859.859 0 0 0 .246.655.934.934 0 0 0 .688.242h12.412a.83.83 0 0 0 .698-.217.808.808 0 0 0 .243-.68v-3.348a.797.797 0 0 0-.243-.68.82.82 0 0 0-.698-.217h-6.999a.944.944 0 0 1-.689-.242.84.84 0 0 1-.252-.655V14.645a.797.797 0 0 0-.243-.681.819.819 0 0 0-.698-.217h-3.524a.827.827 0 0 0-.699.217.796.796 0 0 0-.242.68Zm10.739-.212c-.01.098-.01.198 0 .297l4.588 19.154a.931.931 0 0 0 .358.594.959.959 0 0 0 .675.188h5.843a.962.962 0 0 0 .677-.188.936.936 0 0 0 .362-.594l4.619-19.154c.02-.098.03-.198.031-.297a.631.631 0 0 0-.129-.419.88.88 0 0 0-.72-.266h-3.739a.957.957 0 0 0-.673.185.93.93 0 0 0-.36.59l-2.768 11.479a.244.244 0 0 1-.037.093.254.254 0 0 1-.074.07.141.141 0 0 1-.154 0 .239.239 0 0 1-.11-.163l-2.768-11.478a.93.93 0 0 0-.36-.59.957.957 0 0 0-.673-.186h-3.74a.9.9 0 0 0-.725.266.66.66 0 0 0-.123.419Zm19.225.212v19.13a.86.86 0 0 0 .252.655.932.932 0 0 0 .689.242h13.193c.633 0 .947-.291.947-.897v-3.348c0-.6-.332-.897-.947-.897h-7.602a.947.947 0 0 1-.689-.242.86.86 0 0 1-.252-.655v-.958a.796.796 0 0 1 .242-.681.823.823 0 0 1 .699-.217h4.871a.83.83 0 0 0 .698-.216.807.807 0 0 0 .243-.681v-3.347a.797.797 0 0 0-.243-.68.819.819 0 0 0-.698-.217h-4.871a.829.829 0 0 1-.699-.217.797.797 0 0 1-.242-.68v-.953a.797.797 0 0 1 .242-.68.823.823 0 0 1 .699-.217h7.602c.633 0 .947-.291.947-.898v-3.346c0-.6-.332-.898-.947-.898h-13.193a.827.827 0 0 0-.698.217.796.796 0 0 0-.243.68Zm-48.57 5.826v7.47c0 .364.012.704.043 1.043.035.426.107.848.215 1.262.12.482.289.951.505 1.4.243.482.549.93.91 1.334.402.456.873.849 1.396 1.164a7.566 7.566 0 0 0 2.042.776c1.834.396 3.732.396 5.566 0a7.541 7.541 0 0 0 2.042-.776 5.975 5.975 0 0 0 1.396-1.164c.361-.404.667-.852.91-1.334.216-.449.385-.918.505-1.4a7.33 7.33 0 0 0 .209-1.274c.037-.327.037-.667.037-1.03v-7.47c0-.183-.01-.363-.019-.539-.009-.168-.018-.332-.018-.492a7.52 7.52 0 0 0-.215-1.255 7.342 7.342 0 0 0-.505-1.407 6.02 6.02 0 0 0-.91-1.328 5.518 5.518 0 0 0-1.396-1.152 7.98 7.98 0 0 0-2.042-.776 12.443 12.443 0 0 0-5.566 0 7.98 7.98 0 0 0-2.042.776 5.5 5.5 0 0 0-1.396 1.152 6.02 6.02 0 0 0-.91 1.328 7.31 7.31 0 0 0-.505 1.407 7.32 7.32 0 0 0-.215 1.255c-.037.327-.037.673-.037 1.03Zm9.336.99-.369-3.42a.328.328 0 0 0 .283-.315v-.644a.318.318 0 0 0-.102-.23.325.325 0 0 0-.236-.091h-1.846a.34.34 0 0 0-.344.321v.643a.338.338 0 0 0 .301.321l-.51 3.372c-.374.14-.697.39-.925.714-.229.325-.352.71-.354 1.105V29.5a.978.978 0 0 0 .632.896 1 1 0 0 0 .382.068h3.229a1.012 1.012 0 0 0 .71-.275.965.965 0 0 0 .305-.689v-6.27a1.932 1.932 0 0 0-.315-1.052 1.974 1.974 0 0 0-.841-.718Zm69.801 5.482c-.273.133-.632.306-.597.414.497.629 1.017 1.241 1.536 1.853l.004.005c.189.222.377.444.564.667.185.222.377.437.568.652.329.37.657.737.945 1.136.394.496.622 1.1.652 1.728a1.438 1.438 0 0 1-.646 1.274 7.347 7.347 0 0 1-1.734.897 1.821 1.821 0 0 1-1.135.009 1.798 1.798 0 0 1-.914-.664 4.58 4.58 0 0 1-.818-1.504l-.412-1.232c-.451-1.356-.903-2.713-1.433-4.07l-1.942-.009h-1.23a.982.982 0 0 0-.708.255.885.885 0 0 0-.264.673v4.723a.888.888 0 0 1-.271.673.978.978 0 0 1-.707.255h-3.518a.99.99 0 0 1-.707-.255.888.888 0 0 1-.265-.673V14.675a.888.888 0 0 1 .265-.673.99.99 0 0 1 .707-.255h6.882c2.762 0 4.767.576 5.997 1.734 1.23 1.159 1.845 2.965 1.845 5.458 0 2.829-.796 4.781-2.386 5.857-.041.032-.151.085-.278.147Zm-9.064-3.854c.319.5.796.798 1.363.963l.091.03c.069.024.137.047.206.064.401.098.705-.037.869-.393.095-.209.167-.426.215-.649.058-.261.179-.48.428-.611a44.176 44.176 0 0 1 1.552-.776.798.798 0 0 1 .739.007c.162.083.331.15.506.203.452.137.753.018.981-.389.295-.528.344-1.093.22-1.67-.124-.577-.404-1.06-.891-1.414-.689-.498-1.477-.662-2.314-.623-.747.035-1.441.262-2.091.621-.46.254-.885.553-1.237.943-.483.535-.867 1.128-.995 1.848a2.513 2.513 0 0 0 .358 1.846Z" clip-rule="evenodd"/><defs><clipPath id="a"><path fill="#fff" d="M0 0h48v48H0z"/></clipPath><clipPath id="b"><path fill="#fff" d="M-5.838-6h60v60h-60z"/></clipPath></defs></svg>